<?xml version="1.0" encoding="UTF-8"?>
<svg viewBox="0 0 100 100" version="1.1" xmlns="http://www.w3.org/2000/svg" xmlns:xlink="http://www.w3.org/1999/xlink">
    <defs>
        <rect id="path-1" x="0" y="0" width="100" height="100" rx="5"></rect>
    </defs>
    <g id="Page-1" stroke="none" stroke-width="1" fill="none" fill-rule="evenodd">
        <g id="hci-square">
            <g id="Rectangle">
                <use fill="#F6F6F6" fill-rule="evenodd" xlink:href="#path-1"></use>
                <rect stroke="#606060" stroke-width="1" x="0.5" y="0.5" width="99" height="99" rx="5"></rect>
            </g>
            <path d="M41.1055769,32.5292969 L41.1055769,68 L38.3379988,68 L38.3379988,51.1914062 L14.6739363,51.1914062 L14.6739363,68 L11.9317488,68 L11.9317488,32.5292969 L14.6739363,32.5292969 L14.6739363,48.90625 L38.3379988,48.90625 L38.3379988,32.5292969 L41.1055769,32.5292969 Z M78.8614363,35.0429688 L78.8614363,38.0390625 C74.5619356,35.7538948 70.347134,34.6113281 66.216905,34.6113281 C61.8158414,34.6113281 58.1342375,36.10936 55.1719831,39.1054688 C52.2097288,42.1015775 50.7286238,45.8424255 50.7286238,50.328125 C50.7286238,54.864606 52.2181922,58.5969906 55.1973738,61.5253906 C58.1765553,64.4537907 61.9766475,65.9179688 66.5977644,65.9179688 C70.4571587,65.9179688 74.6634968,64.7076944 79.216905,62.2871094 L79.216905,65.1308594 C75.0189674,67.3483184 70.8295561,68.4570312 66.6485456,68.4570312 C61.2487791,68.4570312 56.7504517,66.7262543 53.1534285,63.2646484 C49.5564053,59.8030426 47.7579206,55.4909112 47.7579206,50.328125 C47.7579206,45.1314844 49.5944908,40.789731 53.2676863,37.3027344 C56.9408817,33.8157378 61.316489,32.0722656 66.3946394,32.0722656 C70.389451,32.0722656 74.5450084,33.0624901 78.8614363,35.0429688 Z M87.2149519,32.5292969 L87.2149519,68 L84.4727644,68 L84.4727644,32.5292969 L87.2149519,32.5292969 Z" id="HCI" fill="#000000"></path>
        </g>
    </g>
</svg>